#!OML:ASF I:\salsa\salsa 7_09\Patient 1\Session 1\dancermale.ASF
:FULLY-SPECIFIED
:DEGREES
1048
root 14.9606 17.2661 6.58418 193.31 233.877 534.159
lowerback -0.723497 0.955858 -1.24071
upperback 5.43511 1.28991 -0.388029
thorax 6.01745 0.563854 0.365213
lowerneck -5.16143 -11.1885 -6.28708
upperneck 35.5009 -18.9651 6.81329
head 14.4057 -8.63262 1.03915
rclavicle -4.79071e-014 2.46493e-014
rhumerus -2.79108 20.3154 -66.5027
rradius 31.3782
rwrist 70.1748
rhand -0.398007 -13.7685
rfingers 7.12502
rthumb 25.2091 -42.1235
lclavicle -4.79071e-014 2.46493e-014
lhumerus -72.5306 -29.7742 121.022
lradius 57.3703
lwrist 8.24882
lhand 14.4918 53.7061
lfingers 7.12502
lthumb 39.3731 439.118
rfemur -37.6002 15.2884 6.82839
rtibia 28.3262
rfoot 7.65134 3.09336
rtoes 19.0566
lfemur -17.0874 7.4188 -17.5877
ltibia 29.8735
lfoot -23.1572 20.5208
ltoes 5.66216
1049
root 14.9892 17.2713 6.56632 193.43 234.219 534.234
lowerback -0.605205 0.938798 -1.18539
upperback 5.41057 1.26129 -0.369216
thorax 5.9245 0.552508 0.349836
lowerneck -5.00343 -11.2022 -6.15094
upperneck 35.6806 -19.0699 6.80438
head 14.4498 -8.66818 1.00665
rclavicle 3.77691e-015 7.95139e-016
rhumerus -3.00606 22.9695 -66.2589
rradius 34.0806
rwrist 68.1459
rhand -0.90615 -14.1202
rfingers 7.12502
rthumb 24.7222 -42.5428
lclavicle 3.77691e-015 7.95139e-016
lhumerus -70.315 -30.3264 117.703
lradius 56.9515
lwrist 7.04488
lhand 13.4931 54.6078
lfingers 7.12502
lthumb 38.4313 440.288
rfemur -37.5812 15.4049 6.72171
rtibia 27.5716
rfoot 7.92945 2.72269
rtoes 20.4152
lfemur -17.3638 8.37614 -17.7054
ltibia 29.852
lfoot -22.9417 20.3052
ltoes 4.38248
1050
root 15.0071 17.2784 6.55029 193.766 234.535 534.054
lowerback -0.545813 0.923978 -1.03063
upperback 5.38961 1.22872 -0.252558
thorax 5.86898 0.541202 0.38126
lowerneck -4.91381 -11.2276 -6.06738
upperneck 35.8695 -19.1097 6.62117
head 14.4874 -8.69608 0.920527
rclavicle 6.1822e-014 -3.89618e-014
rhumerus -3.21063 25.6298 -65.7752
rradius 36.7643
rwrist 65.9467
rhand -1.15127 -14.3957
rfingers 7.12502
rthumb 24.4872 -42.8503
lclavicle 6.1822e-014 -3.89618e-014
lhumerus -68.1229 -30.6945 114.702
lradius 56.645
lwrist 5.26497
lhand 11.9706 55.5316
lfingers 7.12502
lthumb 36.9929 441.598
rfemur -37.4942 15.562 6.79296
rtibia 26.694
rfoot 8.17227 2.3231
rtoes 21.771
lfemur -17.5687 9.31951 -17.6009
ltibia 29.7084
lfoot -22.7743 20.0419
ltoes 3.63151
1051
root 15.0206 17.2882 6.53987 194.013 234.904 533.979
lowerback -0.479165 0.955345 -0.934374
upperback 5.34874 1.26116 -0.151245
thorax 5.78666 0.559957 0.432706
lowerneck -4.7818 -11.2448 -5.8794
upperneck 36.0753 -19.1124 6.3208
head 14.4905 -8.70994 0.783614
rclavicle 4.33351e-014 -2.06736e-014
rhumerus -3.79782 27.9888 -65.1909
rradius 39.5925
rwrist 63.9705
rhand -1.26617 -14.5891
rfingers 7.12502
rthumb 24.3771 -43.0586
lclavicle 4.33351e-014 -2.06736e-014
lhumerus -66.1735 -30.9369 112.045
lradius 56.5328
lwrist 3.29583
lhand 10.2017 56.4122
lfingers 7.12502
lthumb 35.3176 442.894
rfemur -37.302 15.6333 6.82207
rtibia 25.6672
rfoot 8.42983 1.89357
rtoes 23.0732
lfemur -17.6561 10.0944 -17.6144
ltibia 29.4501
lfoot -22.5905 19.8326
ltoes 3.3136
1052
root 15.0293 17.2989 6.53492 194.33 235.29 533.903
lowerback -0.497844 0.976211 -0.790221
upperback 5.28225 1.28163 -0.0880856
thorax 5.72834 0.576311 0.418375
lowerneck -4.71518 -11.1609 -5.74772
upperneck 36.4157 -19.0478 6.1814
head 14.5972 -8.67839 0.718951
rclavicle 4.83047e-014 -1.35174e-014
rhumerus -4.54514 30.3586 -64.5439
rradius 42.3431
rwrist 62.3854
rhand -1.31606 -14.6183
rfingers 7.12502
rthumb 24.3292 -43.0942
lclavicle 4.83047e-014 -1.35174e-014
lhumerus -64.172 -30.9583 109.43
lradius 56.6275
lwrist 1.86906
lhand 8.62737 57.3653
lfingers 7.12502
lthumb 33.8233 444.188
rfemur -37.1285 15.5645 6.88478
rtibia 24.5926
rfoot 8.66321 1.50316
rtoes 24.7965
lfemur -17.7686 10.6078 -17.6677
ltibia 29.1624
lfoot -22.3549 19.7736
ltoes 2.9534
1053
root 15.0333 17.3082 6.53299 194.799 235.622 533.688
lowerback -0.514862 0.977044 -0.54324
upperback 5.17661 1.27086 0.00649314
thorax 5.62967 0.581688 0.376931
lowerneck -4.66578 -11.0536 -5.73022
upperneck 36.7423 -18.9546 6.11543
head 14.7244 -8.63992 0.702387
rclavicle 8.8658e-014 3.57812e-015
rhumerus -5.38214 32.7809 -63.8311
rradius 44.9575
rwrist 61.148
rhand -1.51639 -14.7339
rfingers 7.12502
rthumb 24.1372 -43.2354
lclavicle 8.8658e-014 3.57812e-015
lhumerus -62.0023 -30.7657 106.813
lradius 57.0995
lwrist 1.43681
lhand 7.68102 58.1089
lfingers 7.12502
lthumb 32.9237 445.125
rfemur -37.0116 15.3501 7.11198
rtibia 23.7061
rfoot 8.74394 1.27814
rtoes 26.2853
lfemur -17.944 10.809 -17.6248
ltibia 28.9463
lfoot -22.1892 19.8604
ltoes 2.99916
1054
root 15.0319 17.3168 6.53346 195.23 235.902 533.499
lowerback -0.519311 0.994572 -0.306706
upperback 5.07475 1.28324 0.09393
thorax 5.52776 0.597842 0.33486
lowerneck -4.51706 -11.002 -5.67188
upperneck 36.8449 -18.9013 6.05028
head 14.7202 -8.62335 0.686851
rclavicle 9.34288e-015 -1.51076e-014
rhumerus -6.86881 34.6468 -63.2726
rradius 47.9446
rwrist 60.242
rhand -2.17601 -14.9337
rfingers 7.12502
rthumb 23.5046 -43.5177
lclavicle 9.34288e-015 -1.51076e-014
lhumerus -60.2256 -30.84 104.845
lradius 57.6426
lwrist 1.03321
lhand 6.2823 58.4624
lfingers 7.12502
lthumb 31.5923 445.749
rfemur -36.8729 14.8905 7.44649
rtibia 23.0079
rfoot 8.39848 0.897806
rtoes 26.0978
lfemur -18.0881 10.7993 -17.5888
ltibia 28.7566
lfoot -22.0631 20.0466
ltoes 3.18401
1055
root 15.0191 17.3248 6.53841 195.474 236.142 533.462
lowerback -0.670218 1.00061 -0.202124
upperback 5.10986 1.28369 0.177811
thorax 5.65165 0.600031 0.366549
lowerneck -4.50636 -10.9821 -5.57285
upperneck 36.8269 -18.8537 5.96071
head 14.6792 -8.60077 0.647423
rclavicle -1.5704e-014 3.10104e-014
rhumerus -8.53256 36.0628 -62.6586
rradius 51.0159
rwrist 59.3537
rhand -2.9243 -14.8448
rfingers 7.12502
rthumb 22.7866 -43.519
lclavicle -1.5704e-014 3.10104e-014
lhumerus -58.5728 -31.0523 103.319
lradius 58.2551
lwrist 0.516482
lhand 5.08925 58.9307
lfingers 7.12502
lthumb 30.4551 446.435
rfemur -36.6223 14.1919 7.84028
rtibia 22.456
rfoot 7.42796 0.355861
rtoes 23.5484
lfemur -18.0655 10.6028 -17.6184
ltibia 28.4563
lfoot -21.9355 20.3259
ltoes 2.94443
1056
root 14.9936 17.3306 6.54683 195.483 236.32 533.597
lowerback -0.693131 1.01988 -0.278912
upperback 5.03839 1.30808 0.294719
thorax 5.58476 0.606424 0.531531
lowerneck -4.25061 -10.938 -5.42017
upperneck 36.8828 -18.7691 5.77122
head 14.5966 -8.57912 0.585004
rclavicle 1.03368e-014 -1.74931e-014
rhumerus -10.5944 37.2449 -62.217
rradius 53.8156
rwrist 58.7025
rhand -3.61329 -14.3738
rfingers 7.12502
rthumb 22.1253 -43.1279
lclavicle 1.03368e-014 -1.74931e-014
lhumerus -57.3976 -31.1541 102.245
lradius 59.1452
lwrist 0.452982
lhand 4.1455 59.4107
lfingers 7.12502
lthumb 29.5546 447.078
rfemur -36.2387 13.3907 8.25964
rtibia 22.1466
rfoot 5.67841 -0.0475184
rtoes 19.37
lfemur -17.8336 10.2718 -17.7015
ltibia 28.0051
lfoot -21.8322 20.6238
ltoes 2.29238
1057
root 14.9602 17.3329 6.55766 195.343 236.334 533.904
lowerback -0.772253 0.897022 -0.416153
upperback 4.97336 1.14375 0.443415
thorax 5.55753 0.515692 0.754013
lowerneck -4.14372 -10.7743 -5.40783
upperneck 37.0622 -18.4698 5.49582
head 14.5925 -8.48305 0.529111
rclavicle -4.56211e-014 1.51076e-014
rhumerus -12.4944 38.3246 -61.7946
rradius 56.237
rwrist 58.3067
rhand -4.62628 -14.0822
rfingers 7.12502
rthumb 21.1524 -42.9483
lclavicle -4.56211e-014 1.51076e-014
lhumerus -56.2886 -30.7736 101.171
lradius 60.2467
lwrist 0.802552
lhand 3.69961 59.6168
lfingers 7.12502
lthumb 29.1289 447.358
rfemur -35.8537 12.4165 8.66005
rtibia 22.1546
rfoot 3.32997 -0.382593
rtoes 15.4674
lfemur -17.5705 10.0204 -17.8539
ltibia 27.506
lfoot -21.735 20.6873
ltoes 1.42614
1058
root 14.9219 17.3328 6.57262 195.29 236.169 534.255
lowerback -1.05098 0.712942 -0.511974
upperback 4.9133 0.896719 0.609653
thorax 5.65385 0.38509 0.969815
lowerneck -4.18092 -10.6502 -5.39826
upperneck 37.2195 -18.1756 5.12066
head 14.5971 -8.39305 0.423081
rclavicle -3.19049e-014 1.5704e-014
rhumerus -14.2622 38.9406 -61.382
rradius 58.2158
rwrist 57.9132
rhand -5.75082 -13.8435
rfingers 7.12502
rthumb 20.0719 -42.8267
lclavicle -3.19049e-014 1.5704e-014
lhumerus -55.2707 -30.2753 100.214
lradius 61.3343
lwrist 1.20633
lhand 3.59935 59.4347
lfingers 7.12502
lthumb 29.0331 447.193
rfemur -35.6815 11.2967 9.02282
rtibia 22.5051
rfoot 0.947166 -1.19573
rtoes 12.6451
lfemur -17.4816 9.8488 -18.0258
ltibia 27.0716
lfoot -21.5993 20.5491
ltoes 0.598506
1059
root 14.865 17.3295 6.59473 195.429 236.155 534.431
lowerback -1.55925 0.587109 -0.485122
upperback 4.84227 0.725687 0.735138
thorax 5.87298 0.298542 1.08075
lowerneck -4.23053 -10.5328 -5.32686
upperneck 37.4296 -17.8802 4.66282
head 14.6133 -8.3041 0.272673
rclavicle 9.34288e-015 -9.93923e-016
rhumerus -16.2055 39.0435 -61.2273
rradius 60.155
rwrist 57.8497
rhand -6.35622 -13.5627
rfingers 7.12502
rthumb 19.4899 -42.6059
lclavicle 9.34288e-015 -9.93923e-016
lhumerus -54.5517 -29.8134 99.4779
lradius 62.3855
lwrist 1.45429
lhand 3.27329 59.4578
lfingers 7.12502
lthumb 28.7217 447.269
rfemur -35.6273 10.5059 9.38775
rtibia 23.0156
rfoot -1.09303 -3.04082
rtoes 12.2112
lfemur -17.3276 9.88169 -18.071
ltibia 26.5857
lfoot -21.5008 20.4012
ltoes 0.038593
1060
root 14.8036 17.3327 6.60693 195.184 235.819 534.795
lowerback -1.71527 0.285772 -0.462069
upperback 4.76651 0.319364 0.82865
thorax 5.8913 0.0969573 1.13885
lowerneck -4.22865 -10.2499 -5.50081
upperneck 37.7148 -17.4088 4.43906
head 14.7039 -8.14924 0.276801
rclavicle 1.81888e-014 3.24019e-014
rhumerus -18.0446 39.0272 -61.172
rradius 62.1726
rwrist 57.5007
rhand -6.9063 -13.4512
rfingers 7.12502
rthumb 18.9609 -42.547
lclavicle 1.81888e-014 3.24019e-014
lhumerus -53.9474 -29.0666 98.7353
lradius 63.3195
lwrist 1.9387
lhand 3.01774 59.6942
lfingers 7.12502
lthumb 28.4775 447.547
rfemur -35.2062 9.89237 9.57557
rtibia 23.4926
rfoot -2.91143 -6.2681
rtoes 14.8934
lfemur -17.0199 9.69673 -18.0804
ltibia 26.2387
lfoot -21.5068 20.0853
ltoes -0.44044
1061
root 14.7344 17.3378 6.62071 194.999 235.359 535.068
lowerback -1.85237 0.182437 -0.405761
upperback 4.67198 0.176819 0.914786
thorax 5.87359 0.0281339 1.18738
lowerneck -4.17382 -10.1632 -5.4271
upperneck 37.955 -17.304 4.32784
head 14.7782 -8.10584 0.235972
rclavicle 4.9398e-014 -1.25234e-014
rhumerus -20.0838 37.9053 -61.1935
rradius 64.0092
rwrist 56.3758
rhand -7.75627 -13.116
rfingers 7.12502
rthumb 18.1433 -42.2898
lclavicle 4.9398e-014 -1.25234e-014
lhumerus -53.5542 -28.91 98.3649
lradius 64.0525
lwrist 2.19788
lhand 2.78109 59.6524
lfingers 7.12502
lthumb 28.2514 447.542
rfemur -34.7635 9.27865 9.82934
rtibia 24.1179
rfoot -4.56463 -10.1016
rtoes 17.6098
lfemur -16.6963 9.4051 -17.9882
ltibia 25.9076
lfoot -21.4538 19.7274
ltoes -1.05794
